<?xml version="1.0" encoding="UTF-8"?>
<svg width="40px" height="47px" viewBox="0 0 40 47" version="1.1" xmlns="http://www.w3.org/2000/svg" xmlns:xlink="http://www.w3.org/1999/xlink">
    <!-- Generator: Sketch 58 (84663) - https://sketch.com -->
    <title>icon</title>
    <desc>Created with Sketch.</desc>
    <g id="Page-1" stroke="none" stroke-width="1" fill="none" fill-rule="evenodd">
        <g id="Artboard" transform="translate(-93.000000, -157.000000)" fill="#FFFFFF" fill-rule="nonzero">
            <g id="icon" transform="translate(93.000000, 157.000000)">
                <path d="M28.679,38.342 C27.884,37.547 26.617,37.479 25.743,38.188 C23.593,39.932 20.924,40.905 18.108,40.905 C11.348,40.905 5.847,35.405 5.847,28.643 C5.847,25.647 6.95,22.805 8.914,20.582 C9.532,19.882 9.516,18.825 8.873,18.147 C8.456,17.706 8.04,17.263 7.623,16.821 C7.288,16.465 6.82,16.265 6.331,16.2679667 C5.842,16.271 5.377,16.477 5.045,16.836 C4.025,17.942 3.141,19.169 2.445,20.501 C1.141,22.998 0.452,25.813 0.452,28.643 C0.452,38.379 8.373,46.301 18.109,46.301 C20.921,46.301 23.721,45.619 26.208,44.331 C27.283,43.773 28.304,43.1 29.245,42.33 C29.725,41.937 30.017,41.359 30.05,40.74 C30.081,40.12 29.851,39.513 29.411,39.075 L28.679,38.342 Z" id="Path"></path>
                <path d="M12.605,8.62 C14.981,8.62 16.915,6.687 16.915,4.31 C16.915,1.934 14.982,0 12.605,0 C10.228,0 8.294,1.934 8.294,4.31 C8.295,6.686 10.229,8.62 12.605,8.62 Z" id="Path"></path>
                <path d="M39.917,43.23 L37.21,28.414 C37.044,27.501 36.507,26.68 35.741,26.159 C35.163,25.765 34.485,25.556 33.785,25.556 C33.557,25.556 33.327,25.578 33.103,25.623 L20.75,28.092 C20.708,28.1 20.664,28.106 20.621,28.106 C20.311,28.106 20.042,27.885 19.98,27.581 L18.962,22.566 L27.539,21.103 C28.885,20.873 29.793,19.591 29.562,18.246 C29.358,17.052 28.332,16.185 27.119,16.185 C26.98,16.185 26.842,16.197 26.705,16.22 L17.976,17.709 L16.856,12.187 C16.621,10.905 15.506,9.974 14.204,9.974 C14.041,9.974 13.877,9.989 13.716,10.018 C13.007,10.147 12.39,10.546 11.981,11.138 C11.571,11.732 11.417,12.449 11.546,13.162 L15.12,31.165 C15.301,32.078 15.827,32.865 16.6,33.382 C17.174,33.765 17.843,33.968 18.534,33.968 C18.763,33.968 18.992,33.947 19.217,33.9 L31.597,31.429 C31.77,31.394 31.951,31.431 32.095,31.529 C32.239,31.627 32.339,31.781 32.372,31.954 L34.608,44.201 C34.842,45.484 35.958,46.415 37.258,46.415 L37.258,46.415 C37.422,46.415 37.584,46.4 37.746,46.371 C38.455,46.242 39.07,45.844 39.48,45.25 C39.892,44.657 40.046,43.939 39.917,43.23 Z" id="Path"></path>
            </g>
        </g>
    </g>
</svg>